<svg width="753" height="982" viewBox="0 0 753 982" fill="none" xmlns="http://www.w3.org/2000/svg">
<g clip-path="url(#clip0_103_4)">
<path d="M169 1697.23L194.04 1660.01C219.685 1622.8 268.855 1548.35 344.238 1474.04C418.712 1399.72 519.4 1325.54 494.778 1250.72C470.763 1175.89 322.953 1100.42 286.513 1025.53C250.073 950.642 325.001 876.33 338.109 801.696C350.61 727.06 302.806 652.111 315.307 577.474C328.415 502.841 403.343 428.528 416.451 353.895C428.952 279.259 381.148 204.309 356.526 129.481C332.51 54.6549 333.193 -20.0428 370.999 -94.548C408.804 -169.053 483.733 -243.366 546.237 -317.743C609.347 -392.117 658.517 -466.564 597.833 -541.58C537.149 -616.595 363.581 -692.196 352.444 -766.955C340.702 -841.718 489.877 -915.645 478.135 -990.408C466.999 -1065.17 293.43 -1140.77 269.869 -1215.59C246.308 -1290.41 369.724 -1364.48 383.286 -1439.11C396.848 -1513.74 297.526 -1588.95 298.663 -1663.65C298.892 -1738.35 399.579 -1812.53 399.807 -1887.23C400.944 -1961.92 301.622 -2037.14 253.363 -2112.09C204.498 -2187.05 205.18 -2261.74 255.411 -2336.18C305.035 -2410.63 405.723 -2484.81 430.649 -2559.38C455.575 -2633.95 407.771 -2708.9 445.122 -2783.41C483.382 -2857.91 606.798 -2931.97 657.483 -3006.41C708.168 -3080.85 683.092 -3155.68 609.983 -3230.76C535.965 -3305.85 413.915 -3381.18 414.143 -3455.88C415.28 -3530.58 538.696 -3604.64 601.465 -3641.66L663.627 -3678.69L886.365 -3677.54L886.024 -3640.19C885.683 -3602.84 885 -3528.14 884.317 -3453.44C883.635 -3378.74 882.952 -3304.05 882.269 -3229.35C881.587 -3154.65 880.904 -3079.95 880.221 -3005.26C879.539 -2930.56 878.856 -2855.86 878.174 -2781.16C877.491 -2706.47 876.808 -2631.77 876.126 -2557.07C875.443 -2482.37 874.76 -2407.67 874.078 -2332.98C873.395 -2258.28 872.712 -2183.58 872.03 -2108.88C871.347 -2034.19 870.664 -1959.49 869.982 -1884.79C869.299 -1810.09 868.616 -1735.4 867.934 -1660.7C867.251 -1586 866.569 -1511.3 865.886 -1436.6C865.203 -1361.91 864.521 -1287.21 863.838 -1212.51C863.155 -1137.81 862.473 -1063.12 861.79 -988.418C861.107 -913.721 860.425 -839.023 859.742 -764.325C859.059 -689.628 858.377 -614.93 857.694 -540.232C857.011 -465.534 856.329 -390.837 855.646 -316.139C854.963 -241.441 854.281 -166.744 853.598 -92.046C852.916 -17.3483 852.233 57.3494 851.55 132.047C850.868 206.745 850.185 281.442 849.502 356.14C848.82 430.838 848.137 505.536 847.454 580.233C846.772 654.931 846.089 729.629 845.406 804.326C844.724 879.024 844.041 953.722 843.358 1028.42C842.676 1103.12 841.993 1177.81 841.31 1252.51C840.628 1327.21 839.945 1401.91 839.263 1476.61C838.58 1551.3 837.897 1626 837.556 1663.35L837.215 1700.7L169 1697.23Z" fill="#6266F4"/>
</g>
<defs>
<clipPath id="clip0_103_4">
<rect width="1120.51" height="742.471" fill="white" transform="matrix(0.00913845 -0.999958 0.999987 0.00518452 0.150269 1118.15)"/>
</clipPath>
</defs>
</svg>
